<svg width="24" height="24" viewBox="0 0 24 24" fill="none" xmlns="http://www.w3.org/2000/svg">
    <path fill-rule="evenodd" clip-rule="evenodd"
        d="M22.2047 11.9981V11.9963C22.2047 10.4209 22.2685 9.00862 23.4371 6.52802C23.7749 5.80636 24.5224 4.7549 23.4212 3.5279C22.5265 2.63602 21.5104 2.7823 20.8259 3.17682C21.2196 2.49239 21.3659 1.47196 20.4721 0.576538C19.2459 -0.521024 18.1908 0.224573 17.4726 0.564126C14.989 1.73527 13.5837 1.79999 12.0028 1.79999C10.4157 1.79999 9.00855 1.73527 6.53034 0.564126C5.80861 0.224573 4.74905 -0.521024 3.52635 0.576538C2.6326 1.47196 2.78333 2.49239 3.17701 3.17682C2.49074 2.78053 1.47286 2.63602 0.577332 3.5279C-0.523009 4.7549 0.22799 5.80636 0.559599 6.52802C1.73531 9.00862 1.80003 10.4209 1.80003 11.9981C1.80003 13.5797 1.73531 14.9956 0.559599 17.4744C0.22799 18.1907 -0.523009 19.2493 0.577332 20.4754C1.47286 21.3646 2.49074 21.2174 3.17701 20.8274C2.78333 21.5136 2.6326 22.5313 3.52635 23.4179C4.74905 24.5234 5.80861 23.7761 6.53034 23.4365C9.01032 22.2662 10.4157 22.2042 12.0028 22.2042C13.5837 22.2042 14.989 22.2662 17.4717 23.4365C18.1908 23.7761 19.2459 24.5234 20.4721 23.4179C21.3659 22.5313 21.216 21.5136 20.8241 20.8274C21.5104 21.2174 22.5265 21.3699 23.4212 20.4754C24.5224 19.2493 23.7749 18.1907 23.4371 17.4744C22.2685 14.992 22.2047 13.5797 22.2047 11.9981Z"
        fill="#FF3E3E" />
    <path fill-rule="evenodd" clip-rule="evenodd"
        d="M18.9777 19L13.5584 14.4554C13.5584 14.4554 12.8243 13.7386 12.0008 13.7386C11.1691 13.7386 10.435 14.4554 10.435 14.4554L5.01736 19L5 18.9843L9.54541 13.565C9.54541 13.565 10.2605 12.8334 10.2605 12C10.2605 11.1749 9.54541 10.4424 9.54541 10.4424L5 5.01902L5.01736 5L10.435 9.54955C10.435 9.54955 11.1691 10.268 12.0008 10.268C12.8243 10.268 13.5584 9.54955 13.5584 9.54955L18.9777 5L19 5.02398L14.4455 10.4424C14.4455 10.4424 13.7353 11.1749 13.7353 12C13.7353 12.8334 14.4455 13.565 14.4455 13.565L19 18.9826L18.9777 19Z"
        fill="white" />
</svg>
